<?xml version="1.0" encoding="UTF-8" standalone="no"?>
<!-- Created with Inkscape (http://www.inkscape.org/) -->

<svg
   width="1080"
   height="1080"
   viewBox="0 0 1080 1080"
   version="1.1"
   id="svg1"
   xml:space="preserve"
   inkscape:version="1.4.2 (ebf0e94, 2025-05-08)"
   sodipodi:docname="cc_logo.svg"
   inkscape:export-filename="cc_logo.png"
   inkscape:export-xdpi="45.511112"
   inkscape:export-ydpi="45.511112"
   xmlns:inkscape="http://www.inkscape.org/namespaces/inkscape"
   xmlns:sodipodi="http://sodipodi.sourceforge.net/DTD/sodipodi-0.dtd"
   xmlns="http://www.w3.org/2000/svg"
   xmlns:svg="http://www.w3.org/2000/svg"><sodipodi:namedview
     id="namedview1"
     pagecolor="#e4edf8"
     bordercolor="#000000"
     borderopacity="0.25"
     inkscape:showpageshadow="2"
     inkscape:pageopacity="0.0"
     inkscape:pagecheckerboard="0"
     inkscape:deskcolor="#d1d1d1"
     inkscape:document-units="px"
     inkscape:zoom="0.5"
     inkscape:cx="491"
     inkscape:cy="907"
     inkscape:window-width="1912"
     inkscape:window-height="2061"
     inkscape:window-x="0"
     inkscape:window-y="0"
     inkscape:window-maximized="0"
     inkscape:current-layer="layer2"
     inkscape:export-bgcolor="#aac8ea00" /><defs
     id="defs1" /><g
     inkscape:label="Layer 1"
     inkscape:groupmode="layer"
     id="layer1"
     style="fill:#e38dd5;fill-opacity:1"><rect
       style="fill:#ffb940;fill-opacity:1"
       id="rect1"
       width="1203.4957"
       height="1262.8927"
       x="-66.468033"
       y="-89.095467" /></g><g
     inkscape:groupmode="layer"
     id="layer2"
     inkscape:label="Layer 2"><g
       id="g2"
       transform="translate(0,12)"><g
         id="g3"
         transform="matrix(4.4346613,0,0,4.4346613,-1052.0434,-1275.0805)"
         style="fill:#ff7800;fill-opacity:1"><path
           id="path2-7"
           style="fill:#ff7800;fill-opacity:1;stroke-width:1.05"
           d="m 285.92551,358.08122 c 0,0 -15.50153,29.85651 16.52314,83.23096 32.04467,53.40778 52.28712,60.221 56.5781,60.26501 4.29099,0.044 24.53952,-6.85593 56.5246,-60.16438 32.02467,-53.37445 16.52314,-83.22891 16.52313,-83.22891 0,0 -9.15513,-35.61997 -73.06258,-35.76089 -63.90744,-0.14093 -73.08634,35.65835 -73.08634,35.65835 z"
           sodipodi:nodetypes="cscscccc" /><path
           id="path2"
           style="fill:#ff7800;fill-opacity:1"
           d="m 289.40525,359.64878 c 0,0 -14.76336,28.43477 15.73633,79.26758 30.51873,50.86455 49.79725,57.35333 53.8839,57.39525 4.08666,0.0419 23.37097,-6.52946 53.83295,-57.29941 30.49969,-50.83281 15.73633,-79.26563 15.73632,-79.26563 0,0 -8.71917,-33.92378 -69.58341,-34.05799 -60.86423,-0.13422 -69.60604,33.96033 -69.60604,33.96033 z"
           sodipodi:nodetypes="cscscccc" /></g><g
         id="g1"
         transform="matrix(0.78628751,0,0,0.78628751,362.61297,313.91635)"
         style="fill:#ffd598;fill-opacity:1">
	<path
   class="st0"
   d="M 327.392,89.817 C 270.288,62.244 222.046,0 222.046,0 V 41.456 366.67 c -17.83,-6.55 -38.908,-8.486 -60.632,-4.292 -52.168,10.023 -88.075,51.179 -80.247,91.872 7.851,40.714 56.48,65.578 108.638,55.512 46.306,-8.915 79.741,-42.349 81.171,-78.257 h 0.29 V 148.513 C 421.081,166.816 396.475,272.862 386.108,303.952 472.464,207.23 427.556,138.158 327.392,89.817 Z"
   id="path1-4"
   style="fill:#ffd598;fill-opacity:1;stroke:none;stroke-opacity:1" />
</g></g></g><style
     type="text/css"
     id="style1">
	.st0{fill:#000000;}
</style></svg>
