<?xml version="1.0" encoding="UTF-8" standalone="no"?>
<!-- Created with Inkscape (http://www.inkscape.org/) -->

<svg
   width="1080"
   height="1080"
   viewBox="0 0 1080 1080"
   version="1.1"
   id="svg1"
   xml:space="preserve"
   inkscape:version="1.4.2 (ebf0e94, 2025-05-08)"
   sodipodi:docname="pa_logo.svg"
   inkscape:export-filename="pa_logo.png"
   inkscape:export-xdpi="22.755556"
   inkscape:export-ydpi="22.755556"
   xmlns:inkscape="http://www.inkscape.org/namespaces/inkscape"
   xmlns:sodipodi="http://sodipodi.sourceforge.net/DTD/sodipodi-0.dtd"
   xmlns="http://www.w3.org/2000/svg"
   xmlns:svg="http://www.w3.org/2000/svg"><sodipodi:namedview
     id="namedview1"
     pagecolor="#e4edf8"
     bordercolor="#000000"
     borderopacity="0.25"
     inkscape:showpageshadow="2"
     inkscape:pageopacity="0.0"
     inkscape:pagecheckerboard="0"
     inkscape:deskcolor="#d1d1d1"
     inkscape:document-units="px"
     inkscape:zoom="0.70710678"
     inkscape:cx="468.8118"
     inkscape:cy="7.7781746"
     inkscape:window-width="1918"
     inkscape:window-height="2061"
     inkscape:window-x="0"
     inkscape:window-y="0"
     inkscape:window-maximized="0"
     inkscape:current-layer="layer2"
     inkscape:export-bgcolor="#cfe0f3ff" /><defs
     id="defs1" /><g
     inkscape:label="Layer 1"
     inkscape:groupmode="layer"
     id="layer1"
     style="fill:#e38dd5;fill-opacity:1" /><g
     inkscape:groupmode="layer"
     id="layer2"
     inkscape:label="Layer 2"><g
       id="g3"
       transform="matrix(3.5057083,0,0,3.5057083,-718.54929,-904.35182)"><path
         id="path2-7"
         style="fill:#578dc5;fill-opacity:1;stroke-width:1.05"
         d="m 285.92551,358.08122 c 0,0 -15.50153,29.85651 16.52314,83.23096 32.04467,53.40778 52.28712,60.221 56.5781,60.26501 4.29099,0.044 24.53952,-6.85593 56.5246,-60.16438 32.02467,-53.37445 16.52314,-83.22891 16.52313,-83.22891 0,0 -9.15513,-35.61997 -73.06258,-35.76089 -63.90744,-0.14093 -73.08634,35.65835 -73.08634,35.65835 z"
         sodipodi:nodetypes="cscscccc" /><path
         id="path2"
         style="fill:#8db6e3;fill-opacity:1"
         d="m 289.40525,359.64878 c 0,0 -14.76336,28.43477 15.73633,79.26758 30.51873,50.86455 49.79725,57.35333 53.8839,57.39525 4.08666,0.0419 23.37097,-6.52946 53.83295,-57.29941 30.49969,-50.83281 15.73633,-79.26563 15.73632,-79.26563 0,0 -8.71917,-33.92378 -69.58341,-34.05799 -60.86423,-0.13422 -69.60604,33.96033 -69.60604,33.96033 z"
         sodipodi:nodetypes="cscscccc" /><path
         d="m 334.83151,457.72538 c -7.4053,-6.7441 -3.30593,-17.45532 8.8599,-23.80271 4.09936,-1.98357 7.14081,-2.90923 12.4303,-2.77699 3.30593,0.13224 7.00858,1.98356 7.00858,1.98356 0,-23.93496 -0.13224,-69.16012 -0.13224,-91.37599 1.32238,0 2.24804,-0.13223 4.09936,-0.13223 0,1.32236 0,2.38026 0,3.43816 0,1.19013 0,1.85133 0.13224,2.64475 1.32237,8.33096 3.17369,11.63688 12.43031,21.81915 11.76912,13.0915 15.20729,20.8935 15.20729,31.34026 -0.13224,9.78556 -8.72766,30.67906 -10.57898,29.88563 2.64474,-7.4053 6.34739,-15.33952 7.27305,-21.95139 1.19014,-8.06648 -2.1158,-19.4389 -7.40529,-25.38957 -4.23159,-5.02503 -14.28163,-9.38885 -17.05862,-9.38885 0,0 -0.13223,48.13438 -0.13223,66.38314 0,3.04145 -2.77699,8.46318 -4.36384,10.31451 -7.27305,8.72765 -21.42244,12.69478 -27.76983,7.00857 z"
         id="path1"
         style="stroke-width:1.32238" /></g></g></svg>
