<?xml version="1.0" encoding="UTF-8" standalone="no"?>
<svg
   viewbox="0 0 512 512"
   width="512"
   height="512"
   version="1.1"
   id="svg8"
   sodipodi:docname="unknown_illustration.svg"
   inkscape:version="1.4.2 (ebf0e94, 2025-05-08)"
   inkscape:export-filename="unknown_illustration.png"
   inkscape:export-xdpi="96"
   inkscape:export-ydpi="96"
   xmlns:inkscape="http://www.inkscape.org/namespaces/inkscape"
   xmlns:sodipodi="http://sodipodi.sourceforge.net/DTD/sodipodi-0.dtd"
   xmlns="http://www.w3.org/2000/svg"
   xmlns:svg="http://www.w3.org/2000/svg">
  <sodipodi:namedview
     id="namedview8"
     pagecolor="#ffffff"
     bordercolor="#000000"
     borderopacity="0.25"
     inkscape:showpageshadow="2"
     inkscape:pageopacity="0.0"
     inkscape:pagecheckerboard="0"
     inkscape:deskcolor="#d1d1d1"
     inkscape:zoom="0.90478516"
     inkscape:cx="70.182407"
     inkscape:cy="17.131139"
     inkscape:window-width="1918"
     inkscape:window-height="2061"
     inkscape:window-x="0"
     inkscape:window-y="0"
     inkscape:window-maximized="0"
     inkscape:current-layer="layer2" />
  <defs
     id="defs1" />
  <g
     inkscape:groupmode="layer"
     id="layer1"
     inkscape:label="Layer 1">
    <rect
       style="fill:#ffc48c;fill-opacity:1;stroke:none"
       id="rect8"
       width="647.87921"
       height="786.98962"
       x="-54.706329"
       y="-122.69848"
       inkscape:label="rect8" />
  </g>
  <g
     inkscape:groupmode="layer"
     id="layer2"
     inkscape:label="Layer 2">
    <g
       id="g8"
       transform="matrix(0.81866234,0,0,0.81866234,66.422441,46.422441)">
      <g
         id="g7">
        <g
           id="g6"
           transform="matrix(0.6428214,0,0,0.6428214,91.437722,91.437722)">
          <path
             d="M 253.98697,64 C 253.98697,64 49,64 49,64 c 0,0 0,384 0,384 0,0 204.98697,0 204.98697,0 0,0 10.78422,0 10.78422,0 0,0 0,-0.34362 0,-0.34362 C 358.53796,441.66442 433,358.05935 433,256 433,153.94065 358.53796,70.335585 264.77119,64.343619 c 0,0 0,-0.343619 0,-0.343619 0,0 -10.78422,0 -10.78422,0 z"
             transform="matrix(1.3333333,0,0,1.3333333,-65.333333,-85.333333)"
             fill="#f28c28"
             id="path1" />
        </g>
      </g>
    </g>
  </g>
</svg>
