<svg xmlns="http://www.w3.org/2000/svg" viewbox="0 0 512 511" width="512" height="511"><defs></defs><g transform="matrix(1,0,0,1,0.044256145,0)">
<g>
	<g>
		<path d="M253.986973,64.000000C253.986973,64.000000 49.000000,64.000000 49.000000,64.000000 C49.000000,64.000000 49.000000,448.000000 49.000000,448.000000 C49.000000,448.000000 253.986973,448.000000 253.986973,448.000000 C253.986973,448.000000 264.771186,448.000000 264.771186,448.000000 C264.771186,448.000000 264.771186,447.656381 264.771186,447.656381 C358.537964,441.664415 432.999999,358.059346 432.999999,256.000000 C432.999999,153.940654 358.537964,70.335585 264.771186,64.343619 C264.771186,64.343619 264.771186,64.000000 264.771186,64.000000 C264.771186,64.000000 253.986973,64.000000 253.986973,64.000000 L 253.986973,64.000000 Z" transform="matrix(1.333333333,0,0,1.333333333,-65.333333333,-85.333333333)" fill="#f28c28"/>
		<path d="M256.000000,79.000000C256.000000,79.000000 79.000000,79.000000 79.000000,79.000000 C79.000000,79.000000 79.000000,256.000000 79.000000,256.000000 C79.000000,256.000000 79.000000,433.000000 79.000000,433.000000 C79.000000,433.000000 256.000000,433.000000 256.000000,433.000000 C353.665906,433.000000 433.000000,353.665906 433.000000,256.000000 C433.000000,158.334094 353.665906,79.000000 256.000000,79.000000 L 256.000000,79.000000 Z" transform="matrix(1,0,0,1,-2,0)" fill="#fff2e5" stroke="#000000" stroke-width="40"/>
		<path d="M392.576059,360.000000C392.576059,360.000000 -0.044256,360.000000 -0.044256,360.000000 " transform="matrix(1,0,0,1,0,0)" fill="none" stroke="#000000" stroke-width="25"/>
		<path d="M417.050796,289.663631C417.050796,289.663631 -0.044256,291.728333 -0.044256,291.728333 " transform="matrix(1,0,0,1,0,0)" fill="none" stroke="#000000" stroke-width="25"/>
		<path d="M425.000000,220.000000C425.000000,220.000000 -0.044256,220.000000 -0.044256,220.000000 " transform="matrix(1,0,0,1,0,0)" fill="none" stroke="#000000" stroke-width="25"/>
		<path d="M392.576059,150.000000C392.576059,150.000000 -0.044256,150.000000 -0.044256,150.000000 " transform="matrix(1,0,0,1,0,0)" fill="none" stroke="#000000" stroke-width="25"/>
	</g>
</g></g></svg>